# xmcd CD database file
#
# Track frame offsets:
#	150
#	10288
#	21648
#	32327
#	45545
#	55365
#	67016
#	76752
#	86219
#	98472
#
# Disc length: 1421 seconds
#
# Revision: 2
# Processed by: cddbd v1.5.1PL2 Copyright (c) Steve Scherf et al.
# Submitted via: CDex 1.70beta2
#
DISCID=76058b0a
DTITLE=Bluegrass Legends - Bill Monroe Live
DYEAR=2005
DGENRE=Bluegrass
TTITLE0=Blue Moon Of Kentucky
TTITLE1=Mule Skinner Blues
TTITLE2=Uncle Pen
TTITLE3=Orange Blossom Special (Instrumental)
TTITLE4=I Saw The Light
TTITLE5=Bluegrass Breakdown (Instrumental)
TTITLE6=Shady Grove
TTITLE7=Prison Song
TTITLE8=Can't You Hear Me Calling
TTITLE9=Footprints In The Snow
EXTD=YEAR: 2005
EXTT0=
EXTT1=
EXTT2=
EXTT3=
EXTT4=
EXTT5=
EXTT6=
EXTT7=
EXTT8=
EXTT9=
PLAYORDER=
